STARTFONT 2.1
COMMENT Exported by Fony v1.4.6
FONT Fixed
SIZE 28 100 100
FONTBOUNDINGBOX 16 27 0 -2
STARTPROPERTIES 6
COPYRIGHT "Public domain terminal emulator font.  Share and enjoy. orig"
RESOLUTION_X 100
RESOLUTION_Y 100
FONT_ASCENT 26
FONT_DESCENT 2
DEFAULT_CHAR 0
ENDPROPERTIES
CHARS 256
STARTCHAR 000
ENCODING 0
SWIDTH 648 0
DWIDTH 9 0
BBX 0 0 0 0
BITMAP
ENDCHAR
STARTCHAR 001
ENCODING 1
SWIDTH 1008 0
DWIDTH 14 0
BBX 12 19 0 2
BITMAP
1800
1800
FFC0
FFC0
FFC0
F830
F830
E030
E030
E030
E030
E030
E1F0
E1F0
1FF0
1FF0
01C0
01C0
01C0
ENDCHAR
STARTCHAR 002
ENCODING 2
SWIDTH 1008 0
DWIDTH 14 0
BBX 12 19 0 2
BITMAP
F800
F800
FFF0
FFF0
FFF0
E030
E030
E030
E030
E030
E030
E030
E030
E030
E030
E030
FFF0
FFF0
FFF0
ENDCHAR
STARTCHAR 003
ENCODING 3
SWIDTH 1008 0
DWIDTH 14 0
BBX 12 11 0 5
BITMAP
0600
0700
0780
07C0
FFE0
FFF0
FFE0
07C0
0780
0700
0600
ENDCHAR
STARTCHAR 004
ENCODING 4
SWIDTH 1008 0
DWIDTH 14 0
BBX 12 19 0 2
BITMAP
0600
0F00
1F80
3FC0
7FE0
FFF0
FFF0
0600
0600
0600
0600
0600
0600
0600
0600
0600
FE00
FE00
FE00
ENDCHAR
STARTCHAR 005
ENCODING 5
SWIDTH 1008 0
DWIDTH 14 0
BBX 12 21 0 0
BITMAP
0600
0600
1FC0
1FC0
1FC0
E630
E630
E630
E630
E7F0
E7F0
E7F0
E030
E030
E030
E030
1FC0
1FC0
1FC0
0600
0600
ENDCHAR
STARTCHAR 006
ENCODING 6
SWIDTH 1152 0
DWIDTH 16 0
BBX 13 11 1 5
BITMAP
E380
F3C0
79E0
3CF0
1E78
1E78
1E78
3CF0
79E0
F3C0
E380
ENDCHAR
STARTCHAR 007
ENCODING 7
SWIDTH 1008 0
DWIDTH 14 0
BBX 12 21 0 0
BITMAP
FFF0
FFF0
E630
E630
E630
E030
E030
E030
E030
E030
E030
E030
E030
E030
E030
E030
E630
E630
E630
FFF0
FFF0
ENDCHAR
STARTCHAR 008
ENCODING 8
SWIDTH 1008 0
DWIDTH 14 0
BBX 10 23 1 -2
BITMAP
0C00
0C00
3300
3300
3300
3300
3300
3300
3300
3300
3300
3300
C0C0
C0C0
CCC0
CCC0
CCC0
CCC0
CCC0
C0C0
C0C0
3F00
3F00
ENDCHAR
STARTCHAR 009
ENCODING 9
SWIDTH 1008 0
DWIDTH 14 0
BBX 6 6 1 10
BITMAP
30
78
CC
CC
78
30
ENDCHAR
STARTCHAR 010
ENCODING 10
SWIDTH 648 0
DWIDTH 9 0
BBX 0 0 0 0
BITMAP
ENDCHAR
STARTCHAR 011
ENCODING 11
SWIDTH 648 0
DWIDTH 9 0
BBX 0 0 0 0
BITMAP
ENDCHAR
STARTCHAR 012
ENCODING 12
SWIDTH 648 0
DWIDTH 9 0
BBX 0 0 0 0
BITMAP
ENDCHAR
STARTCHAR 013
ENCODING 13
SWIDTH 648 0
DWIDTH 9 0
BBX 0 0 0 0
BITMAP
ENDCHAR
STARTCHAR 014
ENCODING 14
SWIDTH 648 0
DWIDTH 9 0
BBX 0 0 0 0
BITMAP
ENDCHAR
STARTCHAR 015
ENCODING 15
SWIDTH 648 0
DWIDTH 9 0
BBX 0 0 0 0
BITMAP
ENDCHAR
STARTCHAR 016
ENCODING 16
SWIDTH 648 0
DWIDTH 9 0
BBX 0 0 0 0
BITMAP
ENDCHAR
STARTCHAR 017
ENCODING 17
SWIDTH 648 0
DWIDTH 9 0
BBX 0 0 0 0
BITMAP
ENDCHAR
STARTCHAR 018
ENCODING 18
SWIDTH 648 0
DWIDTH 9 0
BBX 0 0 0 0
BITMAP
ENDCHAR
STARTCHAR 019
ENCODING 19
SWIDTH 648 0
DWIDTH 9 0
BBX 0 0 0 0
BITMAP
ENDCHAR
STARTCHAR 020
ENCODING 20
SWIDTH 648 0
DWIDTH 9 0
BBX 0 0 0 0
BITMAP
ENDCHAR
STARTCHAR 021
ENCODING 21
SWIDTH 648 0
DWIDTH 9 0
BBX 0 0 0 0
BITMAP
ENDCHAR
STARTCHAR 022
ENCODING 22
SWIDTH 648 0
DWIDTH 9 0
BBX 0 0 0 0
BITMAP
ENDCHAR
STARTCHAR 023
ENCODING 23
SWIDTH 648 0
DWIDTH 9 0
BBX 0 0 0 0
BITMAP
ENDCHAR
STARTCHAR 024
ENCODING 24
SWIDTH 648 0
DWIDTH 9 0
BBX 0 0 0 0
BITMAP
ENDCHAR
STARTCHAR 025
ENCODING 25
SWIDTH 648 0
DWIDTH 9 0
BBX 0 0 0 0
BITMAP
ENDCHAR
STARTCHAR 026
ENCODING 26
SWIDTH 648 0
DWIDTH 9 0
BBX 0 0 0 0
BITMAP
ENDCHAR
STARTCHAR 027
ENCODING 27
SWIDTH 648 0
DWIDTH 9 0
BBX 0 0 0 0
BITMAP
ENDCHAR
STARTCHAR 028
ENCODING 28
SWIDTH 648 0
DWIDTH 9 0
BBX 0 0 0 0
BITMAP
ENDCHAR
STARTCHAR 029
ENCODING 29
SWIDTH 648 0
DWIDTH 9 0
BBX 0 0 0 0
BITMAP
ENDCHAR
STARTCHAR 030
ENCODING 30
SWIDTH 648 0
DWIDTH 9 0
BBX 0 0 0 0
BITMAP
ENDCHAR
STARTCHAR 031
ENCODING 31
SWIDTH 648 0
DWIDTH 9 0
BBX 0 0 0 0
BITMAP
ENDCHAR
STARTCHAR 032
ENCODING 32
SWIDTH 1008 0
DWIDTH 14 0
BBX 0 0 0 0
BITMAP
ENDCHAR
STARTCHAR 033
ENCODING 33
SWIDTH 1008 0
DWIDTH 14 0
BBX 2 17 5 2
BITMAP
C0
C0
C0
C0
C0
C0
C0
C0
C0
C0
C0
C0
00
00
C0
C0
C0
ENDCHAR
STARTCHAR 034
ENCODING 34
SWIDTH 1008 0
DWIDTH 14 0
BBX 6 7 3 14
BITMAP
CC
CC
CC
CC
CC
CC
CC
ENDCHAR
STARTCHAR 035
ENCODING 35
SWIDTH 1008 0
DWIDTH 14 0
BBX 12 14 0 2
BITMAP
1980
1980
FFF0
FFF0
1980
1980
1980
1980
1980
FFF0
FFF0
1980
1980
1980
ENDCHAR
STARTCHAR 036
ENCODING 36
SWIDTH 1008 0
DWIDTH 14 0
BBX 12 21 0 0
BITMAP
0600
0600
1F80
3FC0
76E0
E670
C630
C600
E600
7600
3F80
1FC0
06E0
0670
C630
E670
76E0
3FC0
1F80
0600
0600
ENDCHAR
STARTCHAR 037
ENCODING 37
SWIDTH 1008 0
DWIDTH 14 0
BBX 11 17 1 2
BITMAP
F060
F060
F060
F060
00E0
03C0
0780
0E00
0C00
1C00
3800
7000
E000
C1E0
C1E0
C1E0
C1E0
ENDCHAR
STARTCHAR 038
ENCODING 38
SWIDTH 1008 0
DWIDTH 14 0
BBX 12 17 0 2
BITMAP
1800
3C00
7E00
E600
C600
C600
EE00
7C00
3800
7C00
EE30
C770
C3E0
E3E0
7F70
3E30
1C30
ENDCHAR
STARTCHAR 039
ENCODING 39
SWIDTH 1008 0
DWIDTH 14 0
BBX 2 7 5 14
BITMAP
C0
C0
C0
C0
C0
C0
C0
ENDCHAR
STARTCHAR 040
ENCODING 40
SWIDTH 1008 0
DWIDTH 14 0
BBX 7 21 3 0
BITMAP
0E
1E
38
70
60
E0
C0
C0
C0
C0
C0
C0
C0
C0
C0
E0
60
70
38
1E
0E
ENDCHAR
STARTCHAR 041
ENCODING 41
SWIDTH 1008 0
DWIDTH 14 0
BBX 7 21 3 0
BITMAP
E0
F0
38
1C
0C
0E
06
06
06
06
06
06
06
06
06
0E
0C
1C
38
F0
E0
ENDCHAR
STARTCHAR 042
ENCODING 42
SWIDTH 1008 0
DWIDTH 14 0
BBX 12 17 0 2
BITMAP
0600
0600
0600
E670
F6F0
3FC0
1F80
0600
0600
0600
1F80
3FC0
F6F0
E670
0600
0600
0600
ENDCHAR
STARTCHAR 043
ENCODING 43
SWIDTH 1008 0
DWIDTH 14 0
BBX 12 12 0 4
BITMAP
0600
0600
0600
0600
0600
FFF0
FFF0
0600
0600
0600
0600
0600
ENDCHAR
STARTCHAR 044
ENCODING 44
SWIDTH 1008 0
DWIDTH 14 0
BBX 4 7 3 0
BITMAP
F0
F0
30
30
70
E0
C0
ENDCHAR
STARTCHAR 045
ENCODING 45
SWIDTH 1008 0
DWIDTH 14 0
BBX 12 3 0 9
BITMAP
FFF0
FFF0
FFF0
ENDCHAR
STARTCHAR 046
ENCODING 46
SWIDTH 1008 0
DWIDTH 14 0
BBX 4 5 3 2
BITMAP
F0
F0
F0
F0
F0
ENDCHAR
STARTCHAR 047
ENCODING 47
SWIDTH 1008 0
DWIDTH 14 0
BBX 12 17 0 2
BITMAP
0030
0030
0070
00E0
01C0
0180
0380
0300
0700
0E00
1C00
1800
3800
7000
E000
C000
C000
ENDCHAR
STARTCHAR 048
ENCODING 48
SWIDTH 1008 0
DWIDTH 14 0
BBX 12 17 0 2
BITMAP
1F80
3FC0
6060
C030
C070
C0F0
C1B0
C330
C630
CC30
D830
F030
E030
C030
6060
3FC0
1F80
ENDCHAR
STARTCHAR 049
ENCODING 49
SWIDTH 1008 0
DWIDTH 14 0
BBX 7 17 3 2
BITMAP
30
30
30
F0
F0
30
30
30
30
30
30
30
30
30
30
FE
FE
ENDCHAR
STARTCHAR 050
ENCODING 50
SWIDTH 1008 0
DWIDTH 14 0
BBX 12 17 0 2
BITMAP
1FC0
3FE0
7060
E030
C030
0030
0070
00E0
01C0
0380
0700
0E00
1C00
3800
7000
FFF0
FFF0
ENDCHAR
STARTCHAR 051
ENCODING 51
SWIDTH 1008 0
DWIDTH 14 0
BBX 12 17 0 2
BITMAP
FFF0
FFF0
0030
0030
0070
00E0
01C0
0380
07C0
03E0
0070
0030
E030
7070
38E0
1FC0
0F80
ENDCHAR
STARTCHAR 052
ENCODING 52
SWIDTH 1008 0
DWIDTH 14 0
BBX 11 17 0 2
BITMAP
0180
0180
0380
0780
0F80
1D80
3980
7180
E180
C180
FFE0
FFE0
0180
0180
0180
0180
0180
ENDCHAR
STARTCHAR 053
ENCODING 53
SWIDTH 1008 0
DWIDTH 14 0
BBX 12 17 0 2
BITMAP
FFF0
FFF0
C000
C000
C000
FFC0
FFE0
0070
0030
0030
0030
0030
E030
7070
38E0
1FC0
0F80
ENDCHAR
STARTCHAR 054
ENCODING 54
SWIDTH 1008 0
DWIDTH 14 0
BBX 12 17 0 2
BITMAP
03C0
07C0
0E00
1C00
3800
7000
E000
C000
FFC0
FFE0
C070
C030
C030
E030
7070
3FE0
1FC0
ENDCHAR
STARTCHAR 055
ENCODING 55
SWIDTH 1008 0
DWIDTH 14 0
BBX 12 17 0 2
BITMAP
FFF0
FFF0
0030
0030
0030
0070
00E0
01C0
0380
0700
0600
0600
0600
0600
0600
0600
0600
ENDCHAR
STARTCHAR 056
ENCODING 56
SWIDTH 1008 0
DWIDTH 14 0
BBX 11 17 1 2
BITMAP
3F80
7FC0
E0E0
C060
C060
C060
C060
E0E0
7FC0
7FC0
E0E0
C060
C060
C060
E0E0
7FC0
3F80
ENDCHAR
STARTCHAR 057
ENCODING 57
SWIDTH 1008 0
DWIDTH 14 0
BBX 11 17 1 2
BITMAP
3F80
7FC0
E0C0
C060
C060
C060
C060
E060
7FE0
3FE0
0060
00E0
01C0
0380
0700
1E00
1C00
ENDCHAR
STARTCHAR 058
ENCODING 58
SWIDTH 1008 0
DWIDTH 14 0
BBX 4 11 3 2
BITMAP
F0
F0
F0
F0
00
00
00
F0
F0
F0
F0
ENDCHAR
STARTCHAR 059
ENCODING 59
SWIDTH 1008 0
DWIDTH 14 0
BBX 4 13 3 0
BITMAP
F0
F0
F0
F0
00
00
F0
F0
30
30
70
E0
C0
ENDCHAR
STARTCHAR 060
ENCODING 60
SWIDTH 1008 0
DWIDTH 14 0
BBX 7 13 3 4
BITMAP
06
0E
1C
38
70
E0
C0
E0
70
38
1C
0E
06
ENDCHAR
STARTCHAR 061
ENCODING 61
SWIDTH 1008 0
DWIDTH 14 0
BBX 12 7 0 7
BITMAP
FFF0
FFF0
0000
0000
0000
FFF0
FFF0
ENDCHAR
STARTCHAR 062
ENCODING 62
SWIDTH 1008 0
DWIDTH 14 0
BBX 7 13 2 4
BITMAP
C0
E0
70
38
1C
0E
06
0E
1C
38
70
E0
C0
ENDCHAR
STARTCHAR 063
ENCODING 63
SWIDTH 1008 0
DWIDTH 14 0
BBX 11 17 0 2
BITMAP
1F80
3FC0
70E0
E060
C060
00E0
01C0
0380
0700
0600
0600
0600
0000
0000
0600
0600
0600
ENDCHAR
STARTCHAR 064
ENCODING 64
SWIDTH 1008 0
DWIDTH 14 0
BBX 11 17 1 2
BITMAP
1F00
3F80
71C0
E0E0
C060
C7E0
CFE0
CE60
CC60
CEE0
CFE0
C7C0
C000
E000
7000
3F80
1F80
ENDCHAR
STARTCHAR 065
ENCODING 65
SWIDTH 1008 0
DWIDTH 14 0
BBX 11 17 1 2
BITMAP
1F00
3F80
71C0
E0E0
C060
C060
C060
C060
FFE0
FFE0
C060
C060
C060
C060
C060
C060
C060
ENDCHAR
STARTCHAR 066
ENCODING 66
SWIDTH 1008 0
DWIDTH 14 0
BBX 11 17 1 2
BITMAP
FF80
FFC0
30E0
3060
3060
3060
30E0
3FE0
3FC0
30C0
3060
3060
3060
3060
30E0
FFE0
FFC0
ENDCHAR
STARTCHAR 067
ENCODING 67
SWIDTH 1008 0
DWIDTH 14 0
BBX 11 17 1 2
BITMAP
3F00
7F80
E1C0
C0E0
C060
C000
C000
C000
C000
C000
C000
C000
C060
C0E0
E1C0
7F80
3F00
ENDCHAR
STARTCHAR 068
ENCODING 68
SWIDTH 1008 0
DWIDTH 14 0
BBX 11 17 1 2
BITMAP
FF80
FFC0
30E0
3060
3060
3060
3060
3060
3060
3060
3060
3060
3060
3060
30E0
FFC0
FF80
ENDCHAR
STARTCHAR 069
ENCODING 69
SWIDTH 1008 0
DWIDTH 14 0
BBX 12 17 0 2
BITMAP
FFF0
FFF0
C000
C000
C000
C000
C000
FFC0
FFC0
C000
C000
C000
C000
C000
C000
FFF0
FFF0
ENDCHAR
STARTCHAR 070
ENCODING 70
SWIDTH 1008 0
DWIDTH 14 0
BBX 12 17 0 2
BITMAP
FFF0
FFF0
C000
C000
C000
C000
C000
FFC0
FFC0
C000
C000
C000
C000
C000
C000
C000
C000
ENDCHAR
STARTCHAR 071
ENCODING 71
SWIDTH 1008 0
DWIDTH 14 0
BBX 11 17 1 2
BITMAP
1F00
3F80
71C0
E0E0
C060
C000
C000
C000
C000
C000
C3E0
C3E0
C060
C0E0
E1C0
7F80
3F00
ENDCHAR
STARTCHAR 072
ENCODING 72
SWIDTH 1008 0
DWIDTH 14 0
BBX 11 17 1 2
BITMAP
C060
C060
C060
C060
C060
C060
C060
FFE0
FFE0
FFE0
C060
C060
C060
C060
C060
C060
C060
ENDCHAR
STARTCHAR 073
ENCODING 73
SWIDTH 1008 0
DWIDTH 14 0
BBX 8 16 2 2
BITMAP
FF
FF
18
18
18
18
18
18
18
18
18
18
18
18
FF
FF
ENDCHAR
STARTCHAR 074
ENCODING 74
SWIDTH 1008 0
DWIDTH 14 0
BBX 11 16 0 2
BITMAP
07E0
07E0
0180
0180
0180
0180
0180
0180
0180
0180
0180
C180
E380
7700
3E00
1C00
ENDCHAR
STARTCHAR 075
ENCODING 75
SWIDTH 1008 0
DWIDTH 14 0
BBX 11 17 1 2
BITMAP
C060
C0E0
C1C0
C380
C700
CE00
DC00
F800
F000
F800
DC00
CE00
C700
C380
C1C0
C0E0
C060
ENDCHAR
STARTCHAR 076
ENCODING 76
SWIDTH 1008 0
DWIDTH 14 0
BBX 11 17 1 2
BITMAP
C000
C000
C000
C000
C000
C000
C000
C000
C000
C000
C000
C000
C000
C000
C000
FFE0
FFE0
ENDCHAR
STARTCHAR 077
ENCODING 77
SWIDTH 1008 0
DWIDTH 14 0
BBX 10 17 1 2
BITMAP
C0C0
C0C0
E1C0
F3C0
FFC0
DEC0
CCC0
C0C0
C0C0
C0C0
C0C0
C0C0
C0C0
C0C0
C0C0
C0C0
C0C0
ENDCHAR
STARTCHAR 078
ENCODING 78
SWIDTH 1008 0
DWIDTH 14 0
BBX 11 17 1 2
BITMAP
C060
C060
C060
C060
E060
F060
F860
DC60
CE60
C760
C3E0
C1E0
C0E0
C060
C060
C060
C060
ENDCHAR
STARTCHAR 079
ENCODING 79
SWIDTH 1008 0
DWIDTH 14 0
BBX 11 17 1 2
BITMAP
3F80
7FC0
E0E0
C060
C060
C060
C060
C060
C060
C060
C060
C060
C060
C060
E0E0
7FC0
3F80
ENDCHAR
STARTCHAR 080
ENCODING 80
SWIDTH 1008 0
DWIDTH 14 0
BBX 11 17 1 2
BITMAP
FF80
FFC0
C0E0
C060
C060
C060
C060
C0E0
FFC0
FF80
C000
C000
C000
C000
C000
C000
C000
ENDCHAR
STARTCHAR 081
ENCODING 81
SWIDTH 1008 0
DWIDTH 14 0
BBX 12 17 1 2
BITMAP
3F80
7FC0
E0E0
C060
C060
C060
C060
C060
C060
C060
CC60
CE60
C760
C3A0
E1C0
7EE0
3E70
ENDCHAR
STARTCHAR 082
ENCODING 82
SWIDTH 1008 0
DWIDTH 14 0
BBX 11 17 1 2
BITMAP
FF80
FFC0
C0E0
C060
C060
C060
C060
C0E0
FFC0
FF80
DC00
CE00
C700
C380
C1C0
C0E0
C060
ENDCHAR
STARTCHAR 083
ENCODING 83
SWIDTH 1008 0
DWIDTH 14 0
BBX 11 17 1 2
BITMAP
3F80
7FC0
E0E0
C060
C060
C000
C000
E000
7F80
3FC0
00E0
0060
C060
C060
E0E0
7FC0
3F80
ENDCHAR
STARTCHAR 084
ENCODING 84
SWIDTH 1008 0
DWIDTH 14 0
BBX 12 17 0 2
BITMAP
FFF0
FFF0
FFF0
0600
0600
0600
0600
0600
0600
0600
0600
0600
0600
0600
0600
0600
0600
ENDCHAR
STARTCHAR 085
ENCODING 85
SWIDTH 1008 0
DWIDTH 14 0
BBX 11 17 1 2
BITMAP
C060
C060
C060
C060
C060
C060
C060
C060
C060
C060
C060
C060
C060
C060
E0E0
7FC0
3F80
ENDCHAR
STARTCHAR 086
ENCODING 86
SWIDTH 1008 0
DWIDTH 14 0
BBX 11 17 1 2
BITMAP
C060
C060
C060
C060
C060
C060
C060
C060
C060
C060
60C0
60C0
3180
3180
1B00
0E00
0E00
ENDCHAR
STARTCHAR 087
ENCODING 87
SWIDTH 1008 0
DWIDTH 14 0
BBX 11 17 1 2
BITMAP
C060
C060
C060
C060
C060
C060
C060
C060
C060
C060
CE60
CE60
CE60
FFE0
FBE0
7BC0
3180
ENDCHAR
STARTCHAR 088
ENCODING 88
SWIDTH 1008 0
DWIDTH 14 0
BBX 10 17 1 2
BITMAP
C0C0
C0C0
C0C0
C0C0
E1C0
7380
3F00
1E00
0C00
1E00
3F00
7380
E1C0
C0C0
C0C0
C0C0
C0C0
ENDCHAR
STARTCHAR 089
ENCODING 89
SWIDTH 1008 0
DWIDTH 14 0
BBX 10 17 1 2
BITMAP
C0C0
C0C0
C0C0
C0C0
E1C0
7380
3F00
1E00
0C00
0C00
0C00
0C00
0C00
0C00
0C00
0C00
0C00
ENDCHAR
STARTCHAR 090
ENCODING 90
SWIDTH 1008 0
DWIDTH 14 0
BBX 11 16 1 2
BITMAP
FFE0
FFE0
0060
0060
00E0
01C0
0380
0700
0E00
1C00
3800
7000
E000
C000
FFE0
FFE0
ENDCHAR
STARTCHAR 091
ENCODING 91
SWIDTH 1008 0
DWIDTH 14 0
BBX 7 21 3 0
BITMAP
FE
FE
C0
C0
C0
C0
C0
C0
C0
C0
C0
C0
C0
C0
C0
C0
C0
C0
C0
FE
FE
ENDCHAR
STARTCHAR 092
ENCODING 92
SWIDTH 1008 0
DWIDTH 14 0
BBX 11 17 1 2
BITMAP
C000
E000
6000
7000
3000
3800
1C00
0C00
0E00
0600
0700
0380
0180
01C0
00C0
00E0
0060
ENDCHAR
STARTCHAR 093
ENCODING 93
SWIDTH 1008 0
DWIDTH 14 0
BBX 6 21 3 0
BITMAP
FC
FC
0C
0C
0C
0C
0C
0C
0C
0C
0C
0C
0C
0C
0C
0C
0C
0C
0C
FC
FC
ENDCHAR
STARTCHAR 094
ENCODING 94
SWIDTH 1008 0
DWIDTH 14 0
BBX 12 7 0 14
BITMAP
0600
0F00
1F80
39C0
70E0
E070
C030
ENDCHAR
STARTCHAR 095
ENCODING 95
SWIDTH 1008 0
DWIDTH 14 0
BBX 12 2 0 -2
BITMAP
FFF0
FFF0
ENDCHAR
STARTCHAR 096
ENCODING 96
SWIDTH 1008 0
DWIDTH 14 0
BBX 7 7 3 14
BITMAP
C0
E0
70
38
1C
0E
06
ENDCHAR
STARTCHAR 097
ENCODING 97
SWIDTH 1008 0
DWIDTH 14 0
BBX 11 12 1 2
BITMAP
3F80
3FC0
00E0
0060
0060
3FE0
7FE0
E060
C060
E0E0
7FE0
3FC0
ENDCHAR
STARTCHAR 098
ENCODING 98
SWIDTH 1008 0
DWIDTH 14 0
BBX 11 17 1 2
BITMAP
C000
C000
C000
C000
C000
FF80
FFC0
C0E0
C060
C060
C060
C060
C060
C060
C0E0
FFC0
FF80
ENDCHAR
STARTCHAR 099
ENCODING 99
SWIDTH 1008 0
DWIDTH 14 0
BBX 11 12 1 2
BITMAP
3F80
7F80
E000
C000
C000
C000
C000
C060
C060
E0E0
7FC0
3F80
ENDCHAR
STARTCHAR 100
ENCODING 100
SWIDTH 1008 0
DWIDTH 14 0
BBX 12 17 0 2
BITMAP
0030
0030
0030
0030
0030
3FF0
7FF0
E030
C030
C030
C030
C030
C030
C030
E030
7FF0
3FF0
ENDCHAR
STARTCHAR 101
ENCODING 101
SWIDTH 1008 0
DWIDTH 14 0
BBX 11 12 1 2
BITMAP
3F80
7FC0
E0E0
C060
C0E0
FFC0
FF80
C000
C000
E000
7F80
3F80
ENDCHAR
STARTCHAR 102
ENCODING 102
SWIDTH 1008 0
DWIDTH 14 0
BBX 11 17 1 2
BITMAP
0F00
1F80
39C0
30E0
3060
3000
3000
3000
FC00
FC00
3000
3000
3000
3000
3000
3000
3000
ENDCHAR
STARTCHAR 103
ENCODING 103
SWIDTH 1008 0
DWIDTH 14 0
BBX 11 16 1 -2
BITMAP
3F80
7FC0
E0E0
C060
C060
C060
C060
C060
C060
E060
7FE0
3FE0
0060
00E0
3FC0
3F80
ENDCHAR
STARTCHAR 104
ENCODING 104
SWIDTH 1008 0
DWIDTH 14 0
BBX 11 17 1 2
BITMAP
C000
C000
C000
C000
C000
FF80
FFC0
C0E0
C060
C060
C060
C060
C060
C060
C060
C060
C060
ENDCHAR
STARTCHAR 105
ENCODING 105
SWIDTH 1008 0
DWIDTH 14 0
BBX 7 16 3 2
BITMAP
30
30
00
00
F0
F0
30
30
30
30
30
30
30
30
FE
FE
ENDCHAR
STARTCHAR 106
ENCODING 106
SWIDTH 1008 0
DWIDTH 14 0
BBX 9 20 3 -2
BITMAP
0180
0180
0000
0000
0F80
0F80
0180
0180
0180
0180
0180
0180
0180
0180
0180
0180
C180
E380
7F00
3E00
ENDCHAR
STARTCHAR 107
ENCODING 107
SWIDTH 1008 0
DWIDTH 14 0
BBX 11 17 1 2
BITMAP
C000
C000
C000
C000
C000
C060
C0E0
C1C0
C380
C700
FE00
FE00
C700
C380
C1C0
C0E0
C060
ENDCHAR
STARTCHAR 108
ENCODING 108
SWIDTH 1008 0
DWIDTH 14 0
BBX 7 17 3 2
BITMAP
F0
F0
30
30
30
30
30
30
30
30
30
30
30
30
30
FE
FE
ENDCHAR
STARTCHAR 109
ENCODING 109
SWIDTH 1008 0
DWIDTH 14 0
BBX 11 12 1 2
BITMAP
F380
FFC0
DEE0
CC60
CC60
CC60
CC60
CC60
CC60
CC60
CC60
CC60
ENDCHAR
STARTCHAR 110
ENCODING 110
SWIDTH 1008 0
DWIDTH 14 0
BBX 11 12 1 2
BITMAP
CF80
DFC0
F8E0
F060
E060
C060
C060
C060
C060
C060
C060
C060
ENDCHAR
STARTCHAR 111
ENCODING 111
SWIDTH 1008 0
DWIDTH 14 0
BBX 11 12 1 2
BITMAP
3F80
7FC0
E0E0
C060
C060
C060
C060
C060
C060
E0E0
7FC0
3F80
ENDCHAR
STARTCHAR 112
ENCODING 112
SWIDTH 1008 0
DWIDTH 14 0
BBX 11 16 1 -2
BITMAP
FF80
FFC0
C0E0
C060
C060
C060
C060
C060
C060
C0E0
FFC0
FF80
C000
C000
C000
C000
ENDCHAR
STARTCHAR 113
ENCODING 113
SWIDTH 1008 0
DWIDTH 14 0
BBX 11 16 1 -2
BITMAP
3FE0
7FE0
E060
C060
C060
C060
C060
C060
C060
E060
7FE0
3FE0
0060
0060
0060
0060
ENDCHAR
STARTCHAR 114
ENCODING 114
SWIDTH 1008 0
DWIDTH 14 0
BBX 11 12 1 2
BITMAP
CF80
DFC0
F8E0
F060
E060
C000
C000
C000
C000
C000
C000
C000
ENDCHAR
STARTCHAR 115
ENCODING 115
SWIDTH 1008 0
DWIDTH 14 0
BBX 11 12 1 2
BITMAP
3FE0
7FE0
E000
C000
E000
7F80
3FC0
00E0
0060
00E0
FFC0
FF80
ENDCHAR
STARTCHAR 116
ENCODING 116
SWIDTH 1008 0
DWIDTH 14 0
BBX 12 17 0 2
BITMAP
0600
0600
0600
0600
0600
FFF0
FFF0
0600
0600
0600
0600
0600
0600
0600
0700
03F0
01F0
ENDCHAR
STARTCHAR 117
ENCODING 117
SWIDTH 1008 0
DWIDTH 14 0
BBX 11 12 1 2
BITMAP
C060
C060
C060
C060
C060
C060
C0E0
C1E0
C3E0
E760
7E60
3C60
ENDCHAR
STARTCHAR 118
ENCODING 118
SWIDTH 1008 0
DWIDTH 14 0
BBX 10 12 1 2
BITMAP
C0C0
C0C0
C0C0
C0C0
C0C0
C0C0
C0C0
E1C0
7380
3F00
1E00
0C00
ENDCHAR
STARTCHAR 119
ENCODING 119
SWIDTH 1008 0
DWIDTH 14 0
BBX 10 12 1 2
BITMAP
C0C0
C0C0
C0C0
C0C0
C0C0
CCC0
CCC0
CCC0
DEC0
FFC0
7380
3300
ENDCHAR
STARTCHAR 120
ENCODING 120
SWIDTH 1008 0
DWIDTH 14 0
BBX 12 12 0 2
BITMAP
C030
E070
70E0
39C0
1F80
0F00
0F00
1F80
39C0
70E0
E070
C030
ENDCHAR
STARTCHAR 121
ENCODING 121
SWIDTH 1008 0
DWIDTH 14 0
BBX 10 16 1 -2
BITMAP
C0C0
C0C0
C0C0
C0C0
C0C0
C0C0
E0C0
71C0
3B80
1F00
0E00
1C00
3800
7000
E000
C000
ENDCHAR
STARTCHAR 122
ENCODING 122
SWIDTH 1008 0
DWIDTH 14 0
BBX 12 12 0 2
BITMAP
FFF0
FFF0
00E0
01C0
0380
0700
0E00
1C00
3800
7000
FFF0
FFF0
ENDCHAR
STARTCHAR 123
ENCODING 123
SWIDTH 1008 0
DWIDTH 14 0
BBX 7 21 3 0
BITMAP
0E
1E
38
30
30
30
30
30
70
E0
C0
E0
70
30
30
30
30
30
38
1E
0E
ENDCHAR
STARTCHAR 124
ENCODING 124
SWIDTH 1008 0
DWIDTH 14 0
BBX 2 21 5 0
BITMAP
C0
C0
C0
C0
C0
C0
C0
C0
C0
C0
C0
C0
C0
C0
C0
C0
C0
C0
C0
C0
C0
ENDCHAR
STARTCHAR 125
ENCODING 125
SWIDTH 1008 0
DWIDTH 14 0
BBX 6 21 3 0
BITMAP
C0
E0
70
30
30
30
30
30
38
1C
0C
1C
38
30
30
30
30
30
70
E0
C0
ENDCHAR
STARTCHAR 126
ENCODING 126
SWIDTH 1008 0
DWIDTH 14 0
BBX 11 7 1 7
BITMAP
3060
7860
FC60
CC60
CEE0
C7C0
C380
ENDCHAR
STARTCHAR 127
ENCODING 127
SWIDTH 648 0
DWIDTH 9 0
BBX 0 0 0 0
BITMAP
ENDCHAR
STARTCHAR 128
ENCODING 128
SWIDTH 648 0
DWIDTH 9 0
BBX 0 0 0 0
BITMAP
ENDCHAR
STARTCHAR 129
ENCODING 129
SWIDTH 648 0
DWIDTH 9 0
BBX 0 0 0 0
BITMAP
ENDCHAR
STARTCHAR 130
ENCODING 130
SWIDTH 648 0
DWIDTH 9 0
BBX 0 0 0 0
BITMAP
ENDCHAR
STARTCHAR 131
ENCODING 131
SWIDTH 648 0
DWIDTH 9 0
BBX 0 0 0 0
BITMAP
ENDCHAR
STARTCHAR 132
ENCODING 132
SWIDTH 648 0
DWIDTH 9 0
BBX 0 0 0 0
BITMAP
ENDCHAR
STARTCHAR 133
ENCODING 133
SWIDTH 648 0
DWIDTH 9 0
BBX 0 0 0 0
BITMAP
ENDCHAR
STARTCHAR 134
ENCODING 134
SWIDTH 648 0
DWIDTH 9 0
BBX 0 0 0 0
BITMAP
ENDCHAR
STARTCHAR 135
ENCODING 135
SWIDTH 648 0
DWIDTH 9 0
BBX 0 0 0 0
BITMAP
ENDCHAR
STARTCHAR 136
ENCODING 136
SWIDTH 648 0
DWIDTH 9 0
BBX 0 0 0 0
BITMAP
ENDCHAR
STARTCHAR 137
ENCODING 137
SWIDTH 648 0
DWIDTH 9 0
BBX 0 0 0 0
BITMAP
ENDCHAR
STARTCHAR 138
ENCODING 138
SWIDTH 648 0
DWIDTH 9 0
BBX 0 0 0 0
BITMAP
ENDCHAR
STARTCHAR 139
ENCODING 139
SWIDTH 648 0
DWIDTH 9 0
BBX 0 0 0 0
BITMAP
ENDCHAR
STARTCHAR 140
ENCODING 140
SWIDTH 648 0
DWIDTH 9 0
BBX 0 0 0 0
BITMAP
ENDCHAR
STARTCHAR 141
ENCODING 141
SWIDTH 648 0
DWIDTH 9 0
BBX 0 0 0 0
BITMAP
ENDCHAR
STARTCHAR 142
ENCODING 142
SWIDTH 648 0
DWIDTH 9 0
BBX 0 0 0 0
BITMAP
ENDCHAR
STARTCHAR 143
ENCODING 143
SWIDTH 648 0
DWIDTH 9 0
BBX 0 0 0 0
BITMAP
ENDCHAR
STARTCHAR 144
ENCODING 144
SWIDTH 648 0
DWIDTH 9 0
BBX 0 0 0 0
BITMAP
ENDCHAR
STARTCHAR 145
ENCODING 145
SWIDTH 648 0
DWIDTH 9 0
BBX 0 0 0 0
BITMAP
ENDCHAR
STARTCHAR 146
ENCODING 146
SWIDTH 648 0
DWIDTH 9 0
BBX 0 0 0 0
BITMAP
ENDCHAR
STARTCHAR 147
ENCODING 147
SWIDTH 648 0
DWIDTH 9 0
BBX 0 0 0 0
BITMAP
ENDCHAR
STARTCHAR 148
ENCODING 148
SWIDTH 648 0
DWIDTH 9 0
BBX 0 0 0 0
BITMAP
ENDCHAR
STARTCHAR 149
ENCODING 149
SWIDTH 648 0
DWIDTH 9 0
BBX 0 0 0 0
BITMAP
ENDCHAR
STARTCHAR 150
ENCODING 150
SWIDTH 648 0
DWIDTH 9 0
BBX 0 0 0 0
BITMAP
ENDCHAR
STARTCHAR 151
ENCODING 151
SWIDTH 648 0
DWIDTH 9 0
BBX 0 0 0 0
BITMAP
ENDCHAR
STARTCHAR 152
ENCODING 152
SWIDTH 648 0
DWIDTH 9 0
BBX 0 0 0 0
BITMAP
ENDCHAR
STARTCHAR 153
ENCODING 153
SWIDTH 648 0
DWIDTH 9 0
BBX 0 0 0 0
BITMAP
ENDCHAR
STARTCHAR 154
ENCODING 154
SWIDTH 648 0
DWIDTH 9 0
BBX 0 0 0 0
BITMAP
ENDCHAR
STARTCHAR 155
ENCODING 155
SWIDTH 648 0
DWIDTH 9 0
BBX 0 0 0 0
BITMAP
ENDCHAR
STARTCHAR 156
ENCODING 156
SWIDTH 648 0
DWIDTH 9 0
BBX 0 0 0 0
BITMAP
ENDCHAR
STARTCHAR 157
ENCODING 157
SWIDTH 648 0
DWIDTH 9 0
BBX 0 0 0 0
BITMAP
ENDCHAR
STARTCHAR 158
ENCODING 158
SWIDTH 648 0
DWIDTH 9 0
BBX 0 0 0 0
BITMAP
ENDCHAR
STARTCHAR 159
ENCODING 159
SWIDTH 648 0
DWIDTH 9 0
BBX 0 0 0 0
BITMAP
ENDCHAR
STARTCHAR 160
ENCODING 160
SWIDTH 1008 0
DWIDTH 14 0
BBX 0 0 0 0
BITMAP
ENDCHAR
STARTCHAR 161
ENCODING 161
SWIDTH 1008 0
DWIDTH 14 0
BBX 2 17 5 2
BITMAP
C0
C0
C0
00
00
C0
C0
C0
C0
C0
C0
C0
C0
C0
C0
C0
C0
ENDCHAR
STARTCHAR 162
ENCODING 162
SWIDTH 1008 0
DWIDTH 14 0
BBX 12 16 0 0
BITMAP
0600
0600
1FC0
1FC0
E630
E630
E630
E600
E600
E630
E630
1FC0
1FC0
1FC0
0600
0600
ENDCHAR
STARTCHAR 163
ENCODING 163
SWIDTH 1008 0
DWIDTH 14 0
BBX 12 17 0 2
BITMAP
07C0
07C0
07C0
1830
1830
1800
1800
FE00
FE00
FE00
1800
1800
1830
1830
E7C0
E7C0
E7C0
ENDCHAR
STARTCHAR 164
ENCODING 164
SWIDTH 1008 0
DWIDTH 14 0
BBX 12 12 0 2
BITMAP
E630
E630
19C0
19C0
19C0
E030
E030
19C0
19C0
E630
E630
E630
ENDCHAR
STARTCHAR 165
ENCODING 165
SWIDTH 1008 0
DWIDTH 14 0
BBX 12 17 0 2
BITMAP
E030
E030
E030
19C0
19C0
FFF0
FFF0
0600
0600
0600
FFF0
FFF0
0600
0600
0600
0600
0600
ENDCHAR
STARTCHAR 166
ENCODING 166
SWIDTH 1008 0
DWIDTH 14 0
BBX 2 17 5 2
BITMAP
C0
C0
C0
C0
C0
C0
C0
00
00
00
C0
C0
C0
C0
C0
C0
C0
ENDCHAR
STARTCHAR 167
ENCODING 167
SWIDTH 1008 0
DWIDTH 14 0
BBX 9 19 3 2
BITMAP
3F80
3F80
C000
C000
C000
3E00
3E00
C180
C180
C180
C180
C180
3E00
3E00
0180
0180
FE00
FE00
FE00
ENDCHAR
STARTCHAR 168
ENCODING 168
SWIDTH 1008 0
DWIDTH 14 0
BBX 7 2 3 19
BITMAP
CE
CE
ENDCHAR
STARTCHAR 169
ENCODING 169
SWIDTH 1008 0
DWIDTH 14 0
BBX 14 17 0 2
BITMAP
1FF0
1FF0
1FF0
E00C
E00C
E7CC
E7CC
E60C
E60C
E60C
E7CC
E7CC
E00C
E00C
1FF0
1FF0
1FF0
ENDCHAR
STARTCHAR 170
ENCODING 170
SWIDTH 1008 0
DWIDTH 14 0
BBX 7 11 3 12
BITMAP
3E
3E
CE
CE
3E
3E
3E
00
00
FE
FE
ENDCHAR
STARTCHAR 171
ENCODING 171
SWIDTH 1008 0
DWIDTH 14 0
BBX 12 12 0 2
BITMAP
0630
0630
19C0
19C0
19C0
E600
E600
19C0
19C0
0630
0630
0630
ENDCHAR
STARTCHAR 172
ENCODING 172
SWIDTH 1008 0
DWIDTH 14 0
BBX 12 7 0 5
BITMAP
FFF0
FFF0
FFF0
0030
0030
0030
0030
ENDCHAR
STARTCHAR 173
ENCODING 173
SWIDTH 1008 0
DWIDTH 14 0
BBX 7 3 3 9
BITMAP
FE
FE
FE
ENDCHAR
STARTCHAR 174
ENCODING 174
SWIDTH 1008 0
DWIDTH 14 0
BBX 14 17 0 2
BITMAP
1FF0
1FF0
1FF0
E00C
E00C
E7CC
E7CC
E60C
E60C
E60C
E60C
E60C
E00C
E00C
1FF0
1FF0
1FF0
ENDCHAR
STARTCHAR 175
ENCODING 175
SWIDTH 1008 0
DWIDTH 14 0
BBX 12 2 0 19
BITMAP
FFF0
FFF0
ENDCHAR
STARTCHAR 176
ENCODING 176
SWIDTH 1008 0
DWIDTH 14 0
BBX 9 9 3 14
BITMAP
3E00
3E00
C180
C180
C180
C180
C180
3E00
3E00
ENDCHAR
STARTCHAR 177
ENCODING 177
SWIDTH 1008 0
DWIDTH 14 0
BBX 12 17 0 2
BITMAP
0600
0600
0600
0600
0600
FFF0
FFF0
0600
0600
0600
0600
0600
0000
0000
FFF0
FFF0
FFF0
ENDCHAR
STARTCHAR 178
ENCODING 178
SWIDTH 1008 0
DWIDTH 14 0
BBX 7 11 3 12
BITMAP
30
30
CE
CE
0E
0E
0E
30
30
FE
FE
ENDCHAR
STARTCHAR 179
ENCODING 179
SWIDTH 1008 0
DWIDTH 14 0
BBX 7 11 3 12
BITMAP
F0
F0
0E
0E
30
30
30
0E
0E
F0
F0
ENDCHAR
STARTCHAR 180
ENCODING 180
SWIDTH 1008 0
DWIDTH 14 0
BBX 7 7 3 14
BITMAP
0E
0E
30
30
30
C0
C0
ENDCHAR
STARTCHAR 181
ENCODING 181
SWIDTH 1008 0
DWIDTH 14 0
BBX 12 16 0 -2
BITMAP
E030
E030
E030
E030
E030
E030
E030
E1F0
E1F0
FE30
FE30
FE30
E000
E000
E000
E000
ENDCHAR
STARTCHAR 182
ENCODING 182
SWIDTH 1008 0
DWIDTH 14 0
BBX 12 19 0 2
BITMAP
1FF0
1FF0
FE30
FE30
FE30
FE30
FE30
FE30
FE30
1E30
1E30
1E30
0630
0630
0630
0630
0630
0630
0630
ENDCHAR
STARTCHAR 183
ENCODING 183
SWIDTH 1008 0
DWIDTH 14 0
BBX 5 5 5 9
BITMAP
F8
F8
F8
F8
F8
ENDCHAR
STARTCHAR 184
ENCODING 184
SWIDTH 1008 0
DWIDTH 14 0
BBX 7 4 3 -2
BITMAP
0E
0E
F0
F0
ENDCHAR
STARTCHAR 185
ENCODING 185
SWIDTH 1008 0
DWIDTH 14 0
BBX 7 11 3 12
BITMAP
30
30
F0
F0
30
30
30
30
30
FE
FE
ENDCHAR
STARTCHAR 186
ENCODING 186
SWIDTH 1008 0
DWIDTH 14 0
BBX 7 12 3 14
BITMAP
30
30
30
CE
CE
30
30
00
00
00
FE
FE
ENDCHAR
STARTCHAR 187
ENCODING 187
SWIDTH 1008 0
DWIDTH 14 0
BBX 12 12 0 2
BITMAP
E600
E600
19C0
19C0
19C0
0630
0630
19C0
19C0
E600
E600
E600
ENDCHAR
STARTCHAR 188
ENCODING 188
SWIDTH 1008 0
DWIDTH 14 0
BBX 12 24 0 2
BITMAP
1800
1800
1800
F800
F800
1830
1830
19C0
19C0
19C0
1E00
1E00
19C0
19C0
E7C0
E7C0
E7C0
19C0
19C0
1FF0
1FF0
01C0
01C0
01C0
ENDCHAR
STARTCHAR 189
ENCODING 189
SWIDTH 1008 0
DWIDTH 14 0
BBX 12 24 0 2
BITMAP
1800
1800
1800
F800
F800
1830
1830
19C0
19C0
19C0
1E00
1E00
19C0
19C0
E630
E630
E630
0030
0030
01C0
01C0
07F0
07F0
07F0
ENDCHAR
STARTCHAR 190
ENCODING 190
SWIDTH 1008 0
DWIDTH 14 0
BBX 12 24 0 2
BITMAP
F800
F800
F800
0600
0600
1830
1830
07C0
07C0
07C0
FE00
FE00
19C0
19C0
E7C0
E7C0
E7C0
19C0
19C0
1FF0
1FF0
01C0
01C0
01C0
ENDCHAR
STARTCHAR 191
ENCODING 191
SWIDTH 1008 0
DWIDTH 14 0
BBX 12 17 0 2
BITMAP
0600
0600
0600
0000
0000
0600
0600
0600
0600
0600
1800
1800
E030
E030
1FC0
1FC0
1FC0
ENDCHAR
STARTCHAR 192
ENCODING 192
SWIDTH 1008 0
DWIDTH 14 0
BBX 12 24 0 2
BITMAP
1800
1800
1800
0600
0600
0000
0000
1FC0
1FC0
1FC0
E030
E030
E030
E030
FFF0
FFF0
FFF0
E030
E030
E030
E030
E030
E030
E030
ENDCHAR
STARTCHAR 193
ENCODING 193
SWIDTH 1008 0
DWIDTH 14 0
BBX 12 24 0 2
BITMAP
01C0
01C0
01C0
0600
0600
0000
0000
1FC0
1FC0
1FC0
E030
E030
E030
E030
FFF0
FFF0
FFF0
E030
E030
E030
E030
E030
E030
E030
ENDCHAR
STARTCHAR 194
ENCODING 194
SWIDTH 1008 0
DWIDTH 14 0
BBX 12 24 0 2
BITMAP
0600
0600
0600
19C0
19C0
0000
0000
1FC0
1FC0
1FC0
E030
E030
E030
E030
FFF0
FFF0
FFF0
E030
E030
E030
E030
E030
E030
E030
ENDCHAR
STARTCHAR 195
ENCODING 195
SWIDTH 1008 0
DWIDTH 14 0
BBX 12 24 0 2
BITMAP
1E30
1E30
1E30
E7C0
E7C0
0000
0000
1FC0
1FC0
1FC0
E030
E030
E030
E030
FFF0
FFF0
FFF0
E030
E030
E030
E030
E030
E030
E030
ENDCHAR
STARTCHAR 196
ENCODING 196
SWIDTH 1008 0
DWIDTH 14 0
BBX 12 21 0 2
BITMAP
19C0
19C0
0000
0000
1FC0
1FC0
1FC0
E030
E030
E030
E030
FFF0
FFF0
FFF0
E030
E030
E030
E030
E030
E030
E030
ENDCHAR
STARTCHAR 197
ENCODING 197
SWIDTH 1008 0
DWIDTH 14 0
BBX 12 24 0 2
BITMAP
0600
0600
0600
19C0
19C0
0600
0600
1FC0
1FC0
1FC0
E030
E030
E030
E030
FFF0
FFF0
FFF0
E030
E030
E030
E030
E030
E030
E030
ENDCHAR
STARTCHAR 198
ENCODING 198
SWIDTH 1008 0
DWIDTH 14 0
BBX 12 17 0 2
BITMAP
1FF0
1FF0
1FF0
E600
E600
E600
E600
FFC0
FFC0
FFC0
E600
E600
E600
E600
E7F0
E7F0
E7F0
ENDCHAR
STARTCHAR 199
ENCODING 199
SWIDTH 1008 0
DWIDTH 14 0
BBX 12 21 0 -2
BITMAP
1FC0
1FC0
1FC0
E030
E030
E000
E000
E000
E000
E000
E000
E000
E030
E030
1FC0
1FC0
1FC0
01C0
01C0
1E00
1E00
ENDCHAR
STARTCHAR 200
ENCODING 200
SWIDTH 1008 0
DWIDTH 14 0
BBX 12 24 0 2
BITMAP
1800
1800
1800
0600
0600
0000
0000
FFF0
FFF0
FFF0
E000
E000
E000
E000
FFC0
FFC0
FFC0
E000
E000
E000
E000
FFF0
FFF0
FFF0
ENDCHAR
STARTCHAR 201
ENCODING 201
SWIDTH 1008 0
DWIDTH 14 0
BBX 12 24 0 2
BITMAP
01C0
01C0
01C0
0600
0600
0000
0000
FFF0
FFF0
FFF0
E000
E000
E000
E000
FFC0
FFC0
FFC0
E000
E000
E000
E000
FFF0
FFF0
FFF0
ENDCHAR
STARTCHAR 202
ENCODING 202
SWIDTH 1008 0
DWIDTH 14 0
BBX 12 24 0 2
BITMAP
0600
0600
0600
19C0
19C0
0000
0000
FFF0
FFF0
FFF0
E000
E000
E000
E000
FFC0
FFC0
FFC0
E000
E000
E000
E000
FFF0
FFF0
FFF0
ENDCHAR
STARTCHAR 203
ENCODING 203
SWIDTH 1008 0
DWIDTH 14 0
BBX 12 21 0 2
BITMAP
19C0
19C0
0000
0000
FFF0
FFF0
FFF0
E000
E000
E000
E000
FFC0
FFC0
FFC0
E000
E000
E000
E000
FFF0
FFF0
FFF0
ENDCHAR
STARTCHAR 204
ENCODING 204
SWIDTH 1008 0
DWIDTH 14 0
BBX 7 24 3 2
BITMAP
C0
C0
C0
30
30
00
00
FE
FE
FE
30
30
30
30
30
30
30
30
30
30
30
FE
FE
FE
ENDCHAR
STARTCHAR 205
ENCODING 205
SWIDTH 1008 0
DWIDTH 14 0
BBX 7 24 3 2
BITMAP
0E
0E
0E
30
30
00
00
FE
FE
FE
30
30
30
30
30
30
30
30
30
30
30
FE
FE
FE
ENDCHAR
STARTCHAR 206
ENCODING 206
SWIDTH 1008 0
DWIDTH 14 0
BBX 7 24 3 2
BITMAP
30
30
30
CE
CE
00
00
FE
FE
FE
30
30
30
30
30
30
30
30
30
30
30
FE
FE
FE
ENDCHAR
STARTCHAR 207
ENCODING 207
SWIDTH 1008 0
DWIDTH 14 0
BBX 7 21 3 2
BITMAP
CE
CE
00
00
FE
FE
FE
30
30
30
30
30
30
30
30
30
30
30
FE
FE
FE
ENDCHAR
STARTCHAR 208
ENCODING 208
SWIDTH 1008 0
DWIDTH 14 0
BBX 12 17 0 2
BITMAP
1FC0
1FC0
1FC0
1830
1830
1830
1830
FE30
FE30
FE30
1830
1830
1830
1830
1FC0
1FC0
1FC0
ENDCHAR
STARTCHAR 209
ENCODING 209
SWIDTH 1008 0
DWIDTH 14 0
BBX 12 24 0 2
BITMAP
1E30
1E30
1E30
E7C0
E7C0
0000
0000
E030
E030
E030
E030
E030
F830
F830
E630
E630
E630
E1F0
E1F0
E030
E030
E030
E030
E030
ENDCHAR
STARTCHAR 210
ENCODING 210
SWIDTH 1008 0
DWIDTH 14 0
BBX 12 24 0 2
BITMAP
1800
1800
1800
0600
0600
0000
0000
1FC0
1FC0
1FC0
E030
E030
E030
E030
E030
E030
E030
E030
E030
E030
E030
1FC0
1FC0
1FC0
ENDCHAR
STARTCHAR 211
ENCODING 211
SWIDTH 1008 0
DWIDTH 14 0
BBX 12 24 0 2
BITMAP
01C0
01C0
01C0
0600
0600
0000
0000
1FC0
1FC0
1FC0
E030
E030
E030
E030
E030
E030
E030
E030
E030
E030
E030
1FC0
1FC0
1FC0
ENDCHAR
STARTCHAR 212
ENCODING 212
SWIDTH 1008 0
DWIDTH 14 0
BBX 12 24 0 2
BITMAP
0600
0600
0600
19C0
19C0
0000
0000
1FC0
1FC0
1FC0
E030
E030
E030
E030
E030
E030
E030
E030
E030
E030
E030
1FC0
1FC0
1FC0
ENDCHAR
STARTCHAR 213
ENCODING 213
SWIDTH 1008 0
DWIDTH 14 0
BBX 12 24 0 2
BITMAP
1E30
1E30
1E30
E7C0
E7C0
0000
0000
1FC0
1FC0
1FC0
E030
E030
E030
E030
E030
E030
E030
E030
E030
E030
E030
1FC0
1FC0
1FC0
ENDCHAR
STARTCHAR 214
ENCODING 214
SWIDTH 1008 0
DWIDTH 14 0
BBX 12 21 0 2
BITMAP
19C0
19C0
0000
0000
1FC0
1FC0
1FC0
E030
E030
E030
E030
E030
E030
E030
E030
E030
E030
E030
1FC0
1FC0
1FC0
ENDCHAR
STARTCHAR 215
ENCODING 215
SWIDTH 1008 0
DWIDTH 14 0
BBX 12 11 0 5
BITMAP
E030
E030
19C0
19C0
0600
0600
0600
19C0
19C0
E030
E030
ENDCHAR
STARTCHAR 216
ENCODING 216
SWIDTH 1008 0
DWIDTH 14 0
BBX 12 21 0 0
BITMAP
0030
0030
1FC0
1FC0
1FC0
E1F0
E1F0
E630
E630
E630
E630
E630
E630
E630
F830
F830
1FC0
1FC0
1FC0
E000
E000
ENDCHAR
STARTCHAR 217
ENCODING 217
SWIDTH 1008 0
DWIDTH 14 0
BBX 12 24 0 2
BITMAP
1800
1800
1800
0600
0600
0000
0000
E030
E030
E030
E030
E030
E030
E030
E030
E030
E030
E030
E030
E030
E030
1FC0
1FC0
1FC0
ENDCHAR
STARTCHAR 218
ENCODING 218
SWIDTH 1008 0
DWIDTH 14 0
BBX 12 24 0 2
BITMAP
01C0
01C0
01C0
0600
0600
0000
0000
E030
E030
E030
E030
E030
E030
E030
E030
E030
E030
E030
E030
E030
E030
1FC0
1FC0
1FC0
ENDCHAR
STARTCHAR 219
ENCODING 219
SWIDTH 1008 0
DWIDTH 14 0
BBX 12 24 0 2
BITMAP
0600
0600
0600
19C0
19C0
0000
0000
E030
E030
E030
E030
E030
E030
E030
E030
E030
E030
E030
E030
E030
E030
1FC0
1FC0
1FC0
ENDCHAR
STARTCHAR 220
ENCODING 220
SWIDTH 1008 0
DWIDTH 14 0
BBX 12 21 0 2
BITMAP
19C0
19C0
0000
0000
E030
E030
E030
E030
E030
E030
E030
E030
E030
E030
E030
E030
E030
E030
1FC0
1FC0
1FC0
ENDCHAR
STARTCHAR 221
ENCODING 221
SWIDTH 1008 0
DWIDTH 14 0
BBX 12 24 0 2
BITMAP
01C0
01C0
01C0
0600
0600
0000
0000
E030
E030
E030
E030
E030
19C0
19C0
0600
0600
0600
0600
0600
0600
0600
0600
0600
0600
ENDCHAR
STARTCHAR 222
ENCODING 222
SWIDTH 1008 0
DWIDTH 14 0
BBX 9 17 3 2
BITMAP
C000
C000
C000
FE00
FE00
C180
C180
C180
C180
C180
C180
C180
FE00
FE00
C000
C000
C000
ENDCHAR
STARTCHAR 223
ENCODING 223
SWIDTH 1008 0
DWIDTH 14 0
BBX 12 17 0 2
BITMAP
1FC0
1FC0
1FC0
E030
E030
E1C0
E1C0
E600
E600
E600
E1C0
E1C0
E030
E030
E7C0
E7C0
E7C0
ENDCHAR
STARTCHAR 224
ENCODING 224
SWIDTH 1008 0
DWIDTH 14 0
BBX 12 19 0 2
BITMAP
1800
1800
0600
0600
0600
0000
0000
1FC0
1FC0
0030
0030
0030
1FF0
1FF0
E030
E030
1FF0
1FF0
1FF0
ENDCHAR
STARTCHAR 225
ENCODING 225
SWIDTH 1008 0
DWIDTH 14 0
BBX 12 19 0 2
BITMAP
01C0
01C0
0600
0600
0600
0000
0000
1FC0
1FC0
0030
0030
0030
1FF0
1FF0
E030
E030
1FF0
1FF0
1FF0
ENDCHAR
STARTCHAR 226
ENCODING 226
SWIDTH 1008 0
DWIDTH 14 0
BBX 12 19 0 2
BITMAP
0600
0600
19C0
19C0
19C0
0000
0000
1FC0
1FC0
0030
0030
0030
1FF0
1FF0
E030
E030
1FF0
1FF0
1FF0
ENDCHAR
STARTCHAR 227
ENCODING 227
SWIDTH 1008 0
DWIDTH 14 0
BBX 12 19 0 2
BITMAP
1E30
1E30
E7C0
E7C0
E7C0
0000
0000
1FC0
1FC0
0030
0030
0030
1FF0
1FF0
E030
E030
1FF0
1FF0
1FF0
ENDCHAR
STARTCHAR 228
ENCODING 228
SWIDTH 1008 0
DWIDTH 14 0
BBX 12 17 0 2
BITMAP
19C0
19C0
19C0
0000
0000
1FC0
1FC0
0030
0030
0030
1FF0
1FF0
E030
E030
1FF0
1FF0
1FF0
ENDCHAR
STARTCHAR 229
ENCODING 229
SWIDTH 1008 0
DWIDTH 14 0
BBX 12 19 0 2
BITMAP
0600
0600
19C0
19C0
19C0
0600
0600
1FC0
1FC0
0030
0030
0030
1FF0
1FF0
E030
E030
1FF0
1FF0
1FF0
ENDCHAR
STARTCHAR 230
ENCODING 230
SWIDTH 1008 0
DWIDTH 14 0
BBX 12 12 0 2
BITMAP
1FC0
1FC0
0630
0630
0630
1FC0
1FC0
E600
E600
1FF0
1FF0
1FF0
ENDCHAR
STARTCHAR 231
ENCODING 231
SWIDTH 1008 0
DWIDTH 14 0
BBX 12 16 0 -2
BITMAP
1FC0
1FC0
E030
E030
E030
E000
E000
E030
E030
1FC0
1FC0
1FC0
01C0
01C0
1E00
1E00
ENDCHAR
STARTCHAR 232
ENCODING 232
SWIDTH 1008 0
DWIDTH 14 0
BBX 12 19 0 2
BITMAP
1800
1800
0600
0600
0600
0000
0000
1FC0
1FC0
E030
E030
E030
FFC0
FFC0
E000
E000
1FC0
1FC0
1FC0
ENDCHAR
STARTCHAR 233
ENCODING 233
SWIDTH 1008 0
DWIDTH 14 0
BBX 12 19 0 2
BITMAP
01C0
01C0
0600
0600
0600
0000
0000
1FC0
1FC0
E030
E030
E030
FFC0
FFC0
E000
E000
1FC0
1FC0
1FC0
ENDCHAR
STARTCHAR 234
ENCODING 234
SWIDTH 1008 0
DWIDTH 14 0
BBX 12 19 0 2
BITMAP
0600
0600
19C0
19C0
19C0
0000
0000
1FC0
1FC0
E030
E030
E030
FFC0
FFC0
E000
E000
1FC0
1FC0
1FC0
ENDCHAR
STARTCHAR 235
ENCODING 235
SWIDTH 1008 0
DWIDTH 14 0
BBX 12 17 0 2
BITMAP
19C0
19C0
19C0
0000
0000
1FC0
1FC0
E030
E030
E030
FFC0
FFC0
E000
E000
1FC0
1FC0
1FC0
ENDCHAR
STARTCHAR 236
ENCODING 236
SWIDTH 1008 0
DWIDTH 14 0
BBX 7 19 3 2
BITMAP
C0
C0
30
30
30
00
00
F0
F0
30
30
30
30
30
30
30
FE
FE
FE
ENDCHAR
STARTCHAR 237
ENCODING 237
SWIDTH 1008 0
DWIDTH 14 0
BBX 7 19 3 2
BITMAP
0E
0E
30
30
30
00
00
F0
F0
30
30
30
30
30
30
30
FE
FE
FE
ENDCHAR
STARTCHAR 238
ENCODING 238
SWIDTH 1008 0
DWIDTH 14 0
BBX 7 19 3 2
BITMAP
30
30
CE
CE
CE
00
00
F0
F0
30
30
30
30
30
30
30
FE
FE
FE
ENDCHAR
STARTCHAR 239
ENCODING 239
SWIDTH 1008 0
DWIDTH 14 0
BBX 7 17 3 2
BITMAP
CE
CE
CE
00
00
F0
F0
30
30
30
30
30
30
30
FE
FE
FE
ENDCHAR
STARTCHAR 240
ENCODING 240
SWIDTH 1008 0
DWIDTH 14 0
BBX 12 21 0 2
BITMAP
19C0
19C0
0600
0600
19C0
19C0
19C0
0030
0030
1FF0
1FF0
E030
E030
E030
E030
E030
E030
E030
1FC0
1FC0
1FC0
ENDCHAR
STARTCHAR 241
ENCODING 241
SWIDTH 1008 0
DWIDTH 14 0
BBX 12 19 0 2
BITMAP
1E30
1E30
E7C0
E7C0
E7C0
0000
0000
E7C0
E7C0
F830
F830
F830
E030
E030
E030
E030
E030
E030
E030
ENDCHAR
STARTCHAR 242
ENCODING 242
SWIDTH 1008 0
DWIDTH 14 0
BBX 12 19 0 2
BITMAP
1800
1800
0600
0600
0600
0000
0000
1FC0
1FC0
E030
E030
E030
E030
E030
E030
E030
1FC0
1FC0
1FC0
ENDCHAR
STARTCHAR 243
ENCODING 243
SWIDTH 1008 0
DWIDTH 14 0
BBX 12 19 0 2
BITMAP
01C0
01C0
0600
0600
0600
0000
0000
1FC0
1FC0
E030
E030
E030
E030
E030
E030
E030
1FC0
1FC0
1FC0
ENDCHAR
STARTCHAR 244
ENCODING 244
SWIDTH 1008 0
DWIDTH 14 0
BBX 12 19 0 2
BITMAP
0600
0600
19C0
19C0
19C0
0000
0000
1FC0
1FC0
E030
E030
E030
E030
E030
E030
E030
1FC0
1FC0
1FC0
ENDCHAR
STARTCHAR 245
ENCODING 245
SWIDTH 1008 0
DWIDTH 14 0
BBX 12 19 0 2
BITMAP
1E30
1E30
E7C0
E7C0
E7C0
0000
0000
1FC0
1FC0
E030
E030
E030
E030
E030
E030
E030
1FC0
1FC0
1FC0
ENDCHAR
STARTCHAR 246
ENCODING 246
SWIDTH 1008 0
DWIDTH 14 0
BBX 12 17 0 2
BITMAP
19C0
19C0
19C0
0000
0000
1FC0
1FC0
E030
E030
E030
E030
E030
E030
E030
1FC0
1FC0
1FC0
ENDCHAR
STARTCHAR 247
ENCODING 247
SWIDTH 1008 0
DWIDTH 14 0
BBX 12 11 0 5
BITMAP
0600
0600
0000
0000
FFF0
FFF0
FFF0
0000
0000
0600
0600
ENDCHAR
STARTCHAR 248
ENCODING 248
SWIDTH 1008 0
DWIDTH 14 0
BBX 12 12 0 2
BITMAP
1FF0
1FF0
E1F0
E1F0
E1F0
E630
E630
F830
F830
FFC0
FFC0
FFC0
ENDCHAR
STARTCHAR 249
ENCODING 249
SWIDTH 1008 0
DWIDTH 14 0
BBX 12 19 0 2
BITMAP
1800
1800
0600
0600
0600
0000
0000
E030
E030
E030
E030
E030
E030
E030
E030
E030
1FC0
1FC0
1FC0
ENDCHAR
STARTCHAR 250
ENCODING 250
SWIDTH 1008 0
DWIDTH 14 0
BBX 12 19 0 2
BITMAP
01C0
01C0
0600
0600
0600
0000
0000
E030
E030
E030
E030
E030
E030
E030
E030
E030
1FC0
1FC0
1FC0
ENDCHAR
STARTCHAR 251
ENCODING 251
SWIDTH 1008 0
DWIDTH 14 0
BBX 12 19 0 2
BITMAP
0600
0600
19C0
19C0
19C0
0000
0000
E030
E030
E030
E030
E030
E030
E030
E030
E030
1FC0
1FC0
1FC0
ENDCHAR
STARTCHAR 252
ENCODING 252
SWIDTH 1008 0
DWIDTH 14 0
BBX 12 17 0 2
BITMAP
19C0
19C0
19C0
0000
0000
E030
E030
E030
E030
E030
E030
E030
E030
E030
1FC0
1FC0
1FC0
ENDCHAR
STARTCHAR 253
ENCODING 253
SWIDTH 1008 0
DWIDTH 14 0
BBX 12 23 0 -2
BITMAP
01C0
01C0
0600
0600
0600
0000
0000
E030
E030
E030
E030
E030
E030
E030
19C0
19C0
0600
0600
0600
1800
1800
E000
E000
ENDCHAR
STARTCHAR 254
ENCODING 254
SWIDTH 1008 0
DWIDTH 14 0
BBX 12 21 0 -2
BITMAP
E000
E000
E000
E000
E000
FFC0
FFC0
E030
E030
E030
E030
E030
E030
E030
FFC0
FFC0
FFC0
E000
E000
E000
E000
ENDCHAR
STARTCHAR 255
ENCODING 255
SWIDTH 1008 0
DWIDTH 14 0
BBX 12 21 0 -2
BITMAP
19C0
19C0
19C0
0000
0000
E030
E030
E030
E030
E030
E030
E030
19C0
19C0
0600
0600
0600
1800
1800
E000
E000
ENDCHAR
ENDFONT
